<svg viewBox="0 0 800 400" xmlns="http://www.w3.org/2000/svg">
  <!-- Background -->
  <rect x="0" y="0" width="800" height="400" fill="#f5f5f5"/>
  
  <!-- Title -->
  <text x="400" y="40" font-family="Arial" font-size="24" font-weight="bold" text-anchor="middle" fill="#333">Comparación de Mapas de Profundidad</text>
  
  <!-- Left Side: Bad Depth Map -->
  <g transform="translate(200, 200)">
    <text x="0" y="-120" font-family="Arial" font-size="18" font-weight="bold" text-anchor="middle" fill="#d32f2f">✗ MAL</text>
    
    <!-- Empty blue depth map -->
    <rect x="-120" y="-100" width="240" height="180" fill="#000088" rx="5"/>
    <text x="0" y="120" font-family="Arial" font-size="16" text-anchor="middle" fill="#d32f2f">Todo negro o azul = ¡No funciona!</text>
  </g>
  
  <!-- Right Side: Good Depth Map -->
  <g transform="translate(600, 200)">
    <text x="0" y="-120" font-family="Arial" font-size="18" font-weight="bold" text-anchor="middle" fill="#388e3c">✓ BIEN</text>
    
    <!-- Sample good depth map with proper colors -->
    <rect x="-120" y="-100" width="240" height="180" rx="5" fill="#cccccc"/>
    
    <!-- Depth map content representation -->
    <!-- Sky (far) -->
    <rect x="-120" y="-100" width="240" height="50" fill="#000088" rx="5 5 0 0"/>
    
    <!-- Buildings (medium) -->
    <path d="M-120,-50 h240 v40 h-240 z" fill="#00aa88"/>
    <rect x="-80" y="-50" width="40" height="25" fill="#009977"/>
    <rect x="40" y="-50" width="60" height="30" fill="#009977"/>
    
    <!-- Road (variable) -->
    <path d="M-120,-10 h240 v60 h-240 z" fill="#77dd77"/>
    
    <!-- Person in foreground (close) -->
    <rect x="-20" y="10" width="40" height="60" rx="10" fill="#ffcc00"/>
    <circle cx="0" cy="0" r="15" fill="#ff8800"/>
    
    <!-- Car in foreground (very close) -->
    <rect x="-90" y="30" width="50" height="25" rx="5" fill="#ff0000"/>
    <rect x="50" y="20" width="60" height="30" rx="5" fill="#ff4400"/>
    
    <!-- Color scale -->
    <g transform="translate(0, 95)">
      <rect x="-100" y="0" width="30" height="15" fill="#000088"/>
      <rect x="-65" y="0" width="30" height="15" fill="#0088aa"/>
      <rect x="-30" y="0" width="30" height="15" fill="#00aa88"/>
      <rect x="5" y="0" width="30" height="15" fill="#77dd77"/>
      <rect x="40" y="0" width="30" height="15" fill="#ffcc00"/>
      <rect x="75" y="0" width="30" height="15" fill="#ff0000"/>
      
      <text x="-85" y="25" font-family="Arial" font-size="10" text-anchor="middle" fill="#333">Lejos</text>
      <text x="0" y="25" font-family="Arial" font-size="10" text-anchor="middle" fill="#333">Medio</text>
      <text x="90" y="25" font-family="Arial" font-size="10" text-anchor="middle" fill="#333">Cerca</text>
    </g>
    
    <text x="0" y="120" font-family="Arial" font-size="16" text-anchor="middle" fill="#388e3c">Colores variados = ¡Funciona!</text>
  </g>
  
  <!-- Middle explanation -->
  <text x="400" y="200" font-family="Arial" font-size="24" text-anchor="middle" fill="#333">→</text>
  <text x="400" y="230" font-family="Arial" font-size="16" text-anchor="middle" fill="#333">Después de</text>
  <text x="400" y="250" font-family="Arial" font-size="16" text-anchor="middle" fill="#333">calibración</text>
  <text x="400" y="270" font-family="Arial" font-size="16" text-anchor="middle" fill="#333">correcta</text>
</svg>